<?xml version="1.0" encoding="utf-8"?>
<!-- Generator: Adobe Illustrator 16.0.0, SVG Export Plug-In . SVG Version: 6.00 Build 0)  -->
<!DOCTYPE svg PUBLIC "-//W3C//DTD SVG 1.1//EN" "http://www.w3.org/Graphics/SVG/1.1/DTD/svg11.dtd">
<svg version="1.1"
	 id="Layer_1" xmlns:inkscape="http://www.inkscape.org/namespaces/inkscape" xmlns:sodipodi="http://sodipodi.sourceforge.net/DTD/sodipodi-0.dtd" xmlns:svg="http://www.w3.org/2000/svg" xmlns:rdf="http://www.w3.org/1999/02/22-rdf-syntax-ns#" xmlns:cc="http://creativecommons.org/ns#" xmlns:dc="http://purl.org/dc/elements/1.1/" sodipodi:docname="ModernKiosk.svg" inkscape:version="0.92.2 5c3e80d, 2017-08-06"
	 xmlns="http://www.w3.org/2000/svg" xmlns:xlink="http://www.w3.org/1999/xlink" x="0px" y="0px" width="32px" height="32px"
	 viewBox="0 0 32 32" enable-background="new 0 0 32 32" xml:space="preserve">
<sodipodi:namedview  inkscape:cy="53.902621" inkscape:cx="52.991307" inkscape:zoom="4.4978082" showgrid="false" guidetolerance="10" gridtolerance="10" objecttolerance="10" borderopacity="1" pagecolor="#ffffff" bordercolor="#666666" id="namedview14" inkscape:pageshadow="2" inkscape:pageopacity="0" inkscape:window-width="1108" inkscape:window-height="822" inkscape:current-layer="Layer_1" inkscape:window-x="0" inkscape:window-y="1080" inkscape:window-maximized="0">
	</sodipodi:namedview>
<g id="g12" transform="matrix(2.3087827,0,0,2.3087827,-259.44772,-137.21173)">
	<g id="g10">
		<g id="g8">
			<g id="g14">
				<g id="g3374">
					<g id="g3502">
						<g id="g3388">
							<g id="g20" transform="translate(316.0469,198.5532)">
								<path id="path22" inkscape:connector-curvature="0" d="M-189.813-136.289v8.191c0,0.781-0.277,1.448-0.832,2.003
									c-0.555,0.555-1.222,0.832-2.004,0.832h-8.189c-0.781,0-1.448-0.277-2.003-0.832c-0.555-0.555-0.832-1.222-0.832-2.003
									v-8.19c0-0.781,0.277-1.449,0.832-2.003c0.555-0.555,1.222-0.831,2.003-0.831h8.19c0.78,0,1.448,0.277,2.003,0.831
									C-190.09-137.737-189.813-137.07-189.813-136.289 M-192.648-137.864h-8.189c-0.433,0-0.804,0.154-1.112,0.463
									c-0.308,0.308-0.463,0.678-0.463,1.112v8.19c0,0.433,0.154,0.804,0.463,1.113c0.309,0.308,0.68,0.462,1.112,0.462h8.19
									c0.433,0,0.803-0.154,1.112-0.462c0.308-0.309,0.462-0.68,0.462-1.113v-8.19c0-0.434-0.154-0.804-0.462-1.112
									C-191.844-137.709-192.214-137.864-192.648-137.864"/>
							</g>
						</g>
					</g>
				</g>
			</g>
		</g>
	</g>
</g>
</svg>
