<?xml version="1.0" encoding="UTF-8" standalone="no"?>
<svg
   xmlns:dc="http://purl.org/dc/elements/1.1/"
   xmlns:cc="http://creativecommons.org/ns#"
   xmlns:rdf="http://www.w3.org/1999/02/22-rdf-syntax-ns#"
   xmlns:svg="http://www.w3.org/2000/svg"
   xmlns="http://www.w3.org/2000/svg"
   xml:space="preserve"
   enable-background="new 0 0 32 32"
   viewBox="0 0 32 32"
   height="32px"
   width="32px"
   y="0px"
   x="0px"
   id="Layer_1"
   version="1.1"><metadata
     id="metadata15"><rdf:RDF><cc:Work
         rdf:about=""><dc:format>image/svg+xml</dc:format><dc:type
           rdf:resource="http://purl.org/dc/dcmitype/StillImage" /><dc:title></dc:title></cc:Work></rdf:RDF></metadata><defs
     id="defs13" /><g
     transform="matrix(2.3087827,0,0,2.3087827,-259.44772,-137.21173)"
     id="g12"><g
       id="g10"><g
         id="g8"><g
           id="g14"><g
             id="g3374"><g
               id="g3502"><g
                 id="g3388"><g
                   transform="translate(316.0469,198.5532)"
                   id="g20"><path
                     d="M-189.813-136.289v8.191c0,0.781-0.277,1.448-0.832,2.003          c-0.555,0.555-1.222,0.832-2.004,0.832h-8.189c-0.781,0-1.448-0.277-2.003-0.832c-0.555-0.555-0.832-1.222-0.832-2.003          v-8.19c0-0.781,0.277-1.449,0.832-2.003c0.555-0.555,1.222-0.831,2.003-0.831h8.19c0.78,0,1.448,0.277,2.003,0.831          C-190.09-137.737-189.813-137.07-189.813-136.289 M-192.648-137.864h-8.189c-0.433,0-0.804,0.154-1.112,0.463          c-0.308,0.308-0.463,0.678-0.463,1.112v8.19c0,0.433,0.154,0.804,0.463,1.113c0.309,0.308,0.68,0.462,1.112,0.462h8.19          c0.433,0,0.803-0.154,1.112-0.462c0.308-0.309,0.462-0.68,0.462-1.113v-8.19c0-0.434-0.154-0.804-0.462-1.112          C-191.844-137.709-192.214-137.864-192.648-137.864"
                     id="path22" /></g></g></g></g></g></g></g></g></svg>