<?xml version="1.0" encoding="utf-8"?>
<!-- Generator: Adobe Illustrator 16.0.0, SVG Export Plug-In . SVG Version: 6.00 Build 0)  -->
<!DOCTYPE svg PUBLIC "-//W3C//DTD SVG 1.1//EN" "http://www.w3.org/Graphics/SVG/1.1/DTD/svg11.dtd">
<svg version="1.1" id="Layer_1" xmlns="http://www.w3.org/2000/svg" xmlns:xlink="http://www.w3.org/1999/xlink" x="0px" y="0px"
	 width="200px" height="200px" viewBox="0 0 200 200" enable-background="new 0 0 200 200" xml:space="preserve">
<path d="M180.416,2.083H19.583c-10,0-18.333,8.333-18.333,18.333v113.75c0,10,8.333,18.334,18.333,18.334h52.5
	c2.5,0,4.167,1.666,4.167,4.166v6.668c0,0.832,0,1.25-0.417,2.082l-15.417,26.25c-1.667,2.918,0.417,6.25,3.75,6.25h77.083
	c3.334,0,5.416-3.332,3.75-6.25L130,165c-0.416-0.834-0.416-1.25-0.416-2.084v-6.666c0-2.5,1.666-4.166,4.166-4.166h47.084
	c10,0,18.332-8.334,18.332-18.334V20.417C198.75,10.417,190.416,2.083,180.416,2.083z M184.166,133.75c0,2.084-1.666,3.75-3.75,3.75
	H19.583c-2.083,0-3.75-1.666-3.75-3.75V20.417c0-2.083,1.667-3.75,3.75-3.75h160.833c2.084,0,3.75,1.667,3.75,3.75V133.75z"/>
<g id="g12" transform="matrix(2.3087827,0,0,2.3087827,-259.44772,-137.21173)">
	<g>
		<g>
			<defs>
				<rect id="SVGID_1_" x="-1642.494" y="-1148.593" width="3358.201" height="2398.714"/>
			</defs>
			<clipPath id="SVGID_2_">
				<use xlink:href="#SVGID_1_"  overflow="visible"/>
			</clipPath>
			<g id="g14" clip-path="url(#SVGID_2_)">
				<g id="g3374">
					<g id="g3502">
						<g id="g3388">
							<g id="g3488">
								<g id="g3480">
									<g id="g3375">
										<g id="g3362">
											<g id="g24" transform="translate(274.7598,189.832)">
												<path id="path26" inkscape:connector-curvature="0" fill="#00AA4C" d="M-112.186-107.129
													c-0.648-0.45-0.809-1.339-0.36-1.988c0.45-0.648,1.34-0.809,1.988-0.359c0.648,0.449,0.809,1.339,0.359,1.987
													C-110.648-106.84-111.537-106.68-112.186-107.129 M-106.295-100.653l-1.488-9.953c-0.19-1.28-1.421-2.133-2.687-1.864
													l-9.844,2.094c-0.559,0.119-1.052,0.447-1.377,0.917l-11.762,16.958c-0.707,1.019-0.454,2.418,0.566,3.124l11.331,7.859
													c1.019,0.706,2.418,0.454,3.124-0.565l11.763-16.958C-106.345-99.512-106.211-100.088-106.295-100.653"/>
											</g>
											<g id="g3352">
												<g id="g28" transform="translate(249.0161,179.9893)">
													<path id="path30" inkscape:connector-curvature="0" fill="#FFE800" d="M-96.374-93.489
														c0.88-0.595,2.177-0.992,3.589-0.964c0.465,0.009,0.693,0.278,0.613,0.755c-0.475,2.83,0.993,5.816,3.454,7.186
														c0.465,0.259,0.956,0.448,1.473,0.566c0.461,0.105,0.634,0.438,0.46,0.894c-1.042,2.716-3.657,4.508-6.473,4.435
														c-0.442-0.011-0.684-0.291-0.61-0.728c0.504-2.938-1.054-5.91-3.511-7.231c-0.468-0.252-0.963-0.428-1.476-0.559
														c-0.407-0.104-0.564-0.445-0.406-0.858c0.176-0.46,0.398-0.897,0.662-1.31C-98.094-92.093-97.45-92.751-96.374-93.489"
														/>
												</g>
												<g id="g32" transform="translate(243.1836,154.5264)">
													<path id="path34" inkscape:connector-curvature="0" fill="#FFE800" d="M-92.791-58.202
														c-0.717-1.127-1.08-2.348-1.107-3.678c-0.01-0.506,0.322-0.787,0.795-0.659c1.173,0.319,2.106,1.007,2.844,1.981
														c0.67,0.887,1.088,1.889,1.205,3.018c0.047,0.447,0.043,0.895-0.033,1.341c-0.076,0.445-0.452,0.654-0.848,0.473
														C-91.128-56.268-92.085-57.099-92.791-58.202"/>
												</g>
												<g id="g36" transform="translate(264.9219,169.5703)">
													<path id="path38" inkscape:connector-curvature="0" fill="#FFE800" d="M-106.143-79.05
														c-0.699-1.127-1.05-2.363-0.91-3.731c0.014-0.142,0.024-0.288,0.09-0.42c0.143-0.292,0.468-0.406,0.775-0.269
														c1.005,0.45,1.853,1.114,2.529,1.999c0.94,1.231,1.431,2.638,1.445,4.219c0.004,0.43-0.324,0.706-0.729,0.618
														c-0.08-0.018-0.157-0.038-0.235-0.062C-104.446-77.102-105.404-77.919-106.143-79.05"/>
												</g>
											</g>
										</g>
									</g>
								</g>
							</g>
							<g id="g20" transform="translate(316.0469,198.5532)">
								<path id="path22" inkscape:connector-curvature="0" fill="#C32726" d="M-137.543-119.215v26.859
									c0,2.562-0.909,4.751-2.728,6.57c-1.819,1.818-4.008,2.728-6.57,2.728h-26.858c-2.561,0-4.751-0.909-6.57-2.728
									c-1.819-1.818-2.728-4.008-2.728-6.569v-26.859c0-2.562,0.909-4.752,2.728-6.569c1.818-1.819,4.008-2.727,6.57-2.727h26.859
									c2.561,0,4.75,0.909,6.569,2.727C-138.453-123.966-137.543-121.776-137.543-119.215 M-146.841-124.38h-26.858
									c-1.421,0-2.637,0.506-3.648,1.518c-1.011,1.011-1.517,2.227-1.517,3.648v26.859c0,1.42,0.506,2.636,1.517,3.647
									c1.012,1.011,2.228,1.518,3.648,1.518h26.859c1.42,0,2.636-0.506,3.647-1.518c1.012-1.011,1.518-2.227,1.518-3.647v-26.859
									c0-1.421-0.507-2.637-1.518-3.648C-144.204-123.874-145.42-124.38-146.841-124.38"/>
							</g>
						</g>
					</g>
				</g>
			</g>
		</g>
	</g>
	<line fill="none" x1="-33.374" y1="-3.59" x2="105.228" y2="172.693"/>
</g>
<line fill="none" x1="-156.677" y1="83.212" x2="-156.677" y2="83.212"/>
</svg>
